<?xml version="1.0" encoding="UTF-8"?>
<svg id="Layer_2" data-name="Layer 2" xmlns="http://www.w3.org/2000/svg" xmlns:xlink="http://www.w3.org/1999/xlink" viewBox="0 0 658.57 150.58">
  <defs>
    <style>
      .cls-1 {
        fill: #fff;
      }

      .cls-2 {
        fill: url(#linear-gradient);
      }

      .cls-3 {
        fill: #ea4b71;
      }
    </style>
    <linearGradient id="linear-gradient" x1="10.8" y1="69.14" x2="81.19" y2="69.14" gradientUnits="userSpaceOnUse">
      <stop offset="0" stop-color="#ea4b71"/>
      <stop offset="1" stop-color="#000"/>
    </linearGradient>
  </defs>
  <g id="Layer_1-2" data-name="Layer 1">
    <g>
      <path class="cls-1" d="M183.96,1.32h21.41v74.69c0,15.65-8.75,29.12-21.41,35.33-4.83,2.42-10.24,3.8-16,3.8-.92,0-1.84,0-2.65-.12h-.12c-.81.12-1.61.12-2.53.12-17.72,0-31.99-14.27-31.99-31.99v-14.27c0-17.61,14.27-31.99,31.99-31.99,15.08,0,17.84,13.81,17.84,21.41h3.45V1.32ZM183.96,74.28c0-4.49-1.73-8.4-4.6-11.39-2.88-2.88-6.9-4.6-11.39-4.6-8.75,0-16,7.14-16,16v3.57c0,8.75,7.25,16,16,16,4.49,0,8.52-1.84,11.39-4.72,2.88-2.88,4.6-6.9,4.6-11.28v-3.57Z"/>
      <path class="cls-1" d="M244.26,17.31c0,8.86-7.14,16-16,16s-16-7.13-16-16,7.13-16,16-16,16,7.25,16,16ZM217.57,40.44h21.4v74.69h-21.4V40.44Z"/>
      <path class="cls-1" d="M286.15,36.76h37.4v21.4h-21.4v3.57c7.48,0,20.94,2.53,21.4,16.92-.23,7.71-2.76,14.84-6.9,20.71-3.68,5.18-8.63,9.32-14.5,12.08-4.83,2.3-10.24,3.57-16,3.57s-11.16-1.27-16-3.57c-1.04-.46-1.96-1.04-2.99-1.61-10.93-6.44-18.3-18.41-18.3-32.11v-3.57c0-14.96,8.75-27.74,21.29-33.72,3.34-1.61,6.9-2.76,10.7-3.22,1.73-.35,3.57-.46,5.29-.46ZM299.5,122.15h23.02c-2.76,10.93-10.36,20.02-20.37,24.86-4.83,2.3-10.24,3.57-16,3.57s-11.16-1.27-16-3.57c-10.01-4.83-17.49-13.92-20.25-24.86h23.02c2.88,4.26,7.71,7.14,13.23,7.14,4.49,0,8.52-1.84,11.39-4.72.69-.81,1.38-1.61,1.96-2.42ZM297.55,62.77c-2.88-2.88-6.9-4.6-11.39-4.6-8.75,0-16,7.14-16,16v3.57c0,3.45,1.15,6.67,3.11,9.32,2.88,4.03,7.6,6.67,12.89,6.67,4.49,0,8.52-1.84,11.39-4.72,2.88-2.88,4.6-6.9,4.6-11.28v-3.57c0-4.49-1.73-8.4-4.6-11.39Z"/>
      <path class="cls-1" d="M362.46,17.31c0,8.86-7.13,16-16,16s-16-7.13-16-16,7.13-16,16-16,16,7.25,16,16ZM335.76,40.44h21.41v74.69h-21.41V40.44Z"/>
      <path class="cls-3" d="M406.65,1.32h16v21.41h-16c-.58,0-1.15,0-1.73.12-8.06.81-14.27,7.6-14.27,15.88v5.29h21.41v21.29h-21.41v49.83h-21.29V38.72c0-5.75,1.27-11.16,3.57-16,5.75-12.08,17.84-20.6,31.99-21.29.58,0,1.15-.12,1.73-.12Z"/>
      <path class="cls-3" d="M422.65,1.32h21.29v113.82h-21.29V1.32Z"/>
      <path class="cls-3" d="M527.83,74.28v3.57c0,14.84-8.75,27.73-21.41,33.72-4.83,2.3-10.24,3.57-16,3.57s-11.16-1.27-16-3.57c-12.54-5.98-21.29-18.87-21.29-33.72v-3.57c0-14.96,8.75-27.73,21.29-33.72,4.83-2.3,10.36-3.68,16-3.68s11.16,1.38,16,3.68c12.66,5.98,21.41,18.76,21.41,33.72ZM506.43,74.28c0-4.49-1.73-8.4-4.6-11.39-2.88-2.88-6.9-4.6-11.39-4.6-8.75,0-16,7.14-16,16v3.57c0,8.75,7.25,16,16,16,4.49,0,8.52-1.84,11.39-4.72s4.6-6.9,4.6-11.28v-3.57Z"/>
      <path class="cls-3" d="M636.13,36.88h22.44l-26.7,78.26h-27.39l-8.98-26.24-8.98,26.24h-27.39l-26.7-78.26h22.56l17.84,52.36,11.39-33.26,6.56-19.1h9.55l6.45,19.1,11.39,33.26,17.95-52.36Z"/>
    </g>
    <circle class="cls-3" cx="45.99" cy="69.14" r="45.99"/>
    <polygon class="cls-2" points="34.24 75.06 37.41 66.51 26.99 63.29 81.19 0 57.74 63.23 54.56 71.8 64.98 75.01 10.8 138.28 34.24 75.06"/>
  </g>
</svg>